<?xml version="1.0" encoding="UTF-8"?>
<!DOCTYPE svg PUBLIC "-//W3C//DTD SVG 1.1//EN" "http://www.w3.org/Graphics/SVG/1.1/DTD/svg11.dtd">
<!-- Creator: CorelDRAW -->
<svg xmlns="http://www.w3.org/2000/svg" xml:space="preserve" width="8.5in" height="11in" version="1.1" style="shape-rendering:geometricPrecision; text-rendering:geometricPrecision; image-rendering:optimizeQuality; fill-rule:evenodd; clip-rule:evenodd"
viewBox="0 0 8500 11000"
 xmlns:xlink="http://www.w3.org/1999/xlink"
 xmlns:xodm="http://www.corel.com/coreldraw/odm/2003">
 <defs>
  <style type="text/css">
   <![CDATA[
    .fil0 {fill:#F0F0F0}
   ]]>
  </style>
 </defs>
 <g id="Layer_x0020_1">
  <metadata id="CorelCorpID_0Corel-Layer"/>
  <path class="fil0" d="M5560.91 5063.03l873.94 0 873.94 0 873.94 0 0 873.94 -873.94 0 -873.94 0 -873.94 0 -873.94 0 -873.94 0 -873.94 0 -873.94 0 -873.94 0 -873.94 0 0 -873.94 873.94 0 873.94 0 873.94 0 645.91 0c130.13,0 220.26,107.62 273.86,166.1 4.47,5.39 9.19,10.63 14.17,15.72l1.94 1.96 252.08 337.79c42.61,57.09 56.16,81.51 122.58,81.43 66.42,0.08 81.3,-24.31 123.92,-81.43l252.08 -337.79 1.32 -1.33c5.21,-5.28 10.14,-10.74 14.8,-16.35 53.6,-58.48 143.73,-166.1 273.86,-166.1l645.29 0z"/>
 </g>
</svg>
